<?xml version="1.0" standalone="no"?>
<!DOCTYPE svg PUBLIC "-//W3C//DTD SVG 20010904//EN"
 "http://www.w3.org/TR/2001/REC-SVG-20010904/DTD/svg10.dtd">
<svg version="1.0" xmlns="http://www.w3.org/2000/svg"
 width="512.000000pt" height="512.000000pt" viewBox="0 0 512.000000 512.000000"
 preserveAspectRatio="xMidYMid meet">
<metadata>
Created by potrace 1.14, written by Peter Selinger 2001-2017
</metadata>
<g transform="translate(0.000000,512.000000) scale(0.100000,-0.100000)"
fill="#000000" stroke="none">
<path d="M3785 4107 c-16 -25 -39 -142 -50 -257 -12 -125 -42 -199 -100 -246
-28 -23 -38 -39 -42 -72 -3 -23 -9 -42 -13 -42 -5 0 -6 -8 -3 -19 8 -30 -37
-179 -82 -276 -34 -72 -56 -103 -107 -150 -111 -105 -371 -295 -705 -514 -109
-72 -203 -135 -210 -141 -7 -5 -15 -10 -17 -10 -3 0 -65 -40 -138 -89 -229
-154 -362 -297 -459 -493 -26 -54 -46 -98 -43 -98 3 0 0 -8 -5 -18 -18 -34
-59 -272 -47 -272 22 0 515 275 656 365 65 42 565 360 585 372 158 96 417 247
608 352 103 57 329 168 442 216 365 158 503 254 612 427 l41 67 -31 14 c-18 8
-41 18 -52 21 -18 5 -70 85 -150 230 -44 82 -164 268 -203 316 -20 25 -63 72
-95 106 -68 70 -98 114 -90 127 3 6 1 7 -6 3 -6 -4 -14 -1 -17 7 -8 21 -83 72
-124 83 -19 6 -58 11 -87 13 -45 2 -54 -1 -68 -22z"/>
<path d="M2233 3897 c-26 -28 -95 -132 -117 -174 -21 -43 -54 -166 -61 -235
-6 -49 -4 -58 9 -58 9 0 16 3 16 8 0 18 140 61 250 77 94 14 264 15 272 2 6
-9 8 -9 8 0 0 6 10 10 23 8 12 -2 44 -6 71 -10 27 -3 54 -8 60 -11 20 -10 -50
50 -130 113 -43 34 -117 102 -162 152 -120 131 -199 173 -239 128z"/>
<path d="M3482 3516 c-46 -23 -64 -38 -68 -56 -28 -125 -86 -265 -140 -336
-36 -47 -164 -153 -329 -274 -173 -126 -550 -380 -565 -380 -5 0 -10 -4 -10
-8 0 -5 -12 -15 -27 -23 -63 -32 -322 -212 -381 -263 -195 -172 -319 -384
-356 -614 -14 -80 -28 -242 -22 -242 15 0 126 63 127 72 1 7 3 22 4 33 2 11 6
45 10 75 20 163 103 367 200 495 131 173 251 268 650 515 95 59 590 402 605
419 3 4 32 26 64 50 96 71 179 161 208 222 41 86 109 333 95 345 -1 1 -30 -12
-65 -30z"/>
<path d="M2335 3455 c-226 -34 -356 -121 -363 -243 -3 -51 -24 -82 -91 -140
-70 -61 -77 -73 -100 -155 -10 -36 -24 -64 -35 -71 -52 -30 -113 -117 -129
-187 -4 -15 -23 -40 -43 -55 -77 -61 -120 -112 -156 -185 -38 -78 -81 -123
-268 -289 -40 -36 -78 -70 -84 -75 -6 -6 -40 -35 -76 -65 -36 -30 -67 -58 -70
-61 -18 -23 -145 -93 -223 -123 -114 -44 -167 -77 -234 -144 -112 -115 -126
-158 -91 -286 l19 -73 82 -26 c45 -14 96 -28 112 -32 17 -3 40 -7 52 -9 137
-26 507 -27 643 -1 14 3 39 7 55 10 49 10 179 48 188 55 10 9 14 30 22 135 8
105 27 212 51 280 66 196 198 382 374 527 61 51 375 258 390 258 6 0 10 5 10
10 0 6 4 10 9 10 12 0 482 319 556 377 6 4 44 33 85 64 168 125 237 200 286
307 21 47 42 111 50 148 1 6 5 22 9 35 7 20 5 22 -6 12 -35 -28 -174 -56 -284
-57 -109 0 -124 1 -220 24 -163 37 -368 47 -520 25z"/>
<path d="M4697 3090 c-106 -167 -253 -267 -632 -430 -109 -47 -366 -172 -390
-190 -5 -4 -50 -29 -100 -55 -121 -65 -122 -66 -340 -195 -273 -161 -294 -175
-510 -315 -166 -109 -327 -208 -525 -323 -131 -76 -202 -115 -385 -212 -105
-55 -238 -111 -252 -105 -8 2 -11 1 -8 -5 3 -5 -32 -20 -77 -34 -106 -32 -131
-37 -237 -51 -25 -4 -62 -8 -81 -11 -43 -6 -326 -6 -360 0 -20 3 -121 13 -185
18 -5 0 -48 11 -95 24 -47 13 -88 24 -93 24 -18 0 27 -63 66 -91 95 -69 222
-110 387 -125 36 -3 92 -9 125 -13 88 -12 382 -12 440 0 161 34 451 147 710
276 123 62 183 95 455 252 491 282 665 376 850 459 25 11 144 59 265 107 121
47 265 104 320 127 237 96 490 239 633 357 49 40 149 183 187 268 40 87 42
213 4 213 -6 0 -38 20 -70 45 -33 25 -60 45 -62 45 -1 0 -19 -27 -40 -60z"/>
</g>
</svg>
