<?xml version="1.0" standalone="no"?>
<!DOCTYPE svg PUBLIC "-//W3C//DTD SVG 20010904//EN"
 "http://www.w3.org/TR/2001/REC-SVG-20010904/DTD/svg10.dtd">
<svg version="1.0" xmlns="http://www.w3.org/2000/svg"
 width="1920.000000pt" height="1920.000000pt" viewBox="0 0 1920.000000 1920.000000"
 preserveAspectRatio="xMidYMid meet">
<metadata>
Created by potrace 1.14, written by Peter Selinger 2001-2017
</metadata>
<g transform="translate(0.000000,1920.000000) scale(0.100000,-0.100000)"
fill="#000000" stroke="none">
<path d="M6502 12627 c-50 -15 -116 -84 -137 -142 -10 -27 -26 -68 -35 -90
-17 -38 -54 -134 -56 -145 0 -3 -4 -14 -9 -25 -5 -11 -37 -94 -73 -185 -35
-91 -79 -205 -99 -255 -19 -49 -51 -130 -69 -180 -19 -49 -39 -98 -44 -107 -6
-10 -10 -23 -10 -29 0 -6 -7 -25 -15 -42 -8 -18 -35 -86 -60 -152 -25 -66 -49
-129 -54 -140 -5 -11 -15 -36 -21 -55 -7 -19 -19 -48 -25 -65 -7 -16 -27 -68
-45 -115 -17 -47 -37 -98 -45 -115 -7 -16 -39 -97 -70 -180 -32 -82 -63 -163
-70 -180 -20 -50 -60 -150 -61 -155 0 -3 -4 -14 -9 -25 -4 -11 -28 -72 -52
-135 -24 -63 -50 -128 -57 -145 -15 -32 -30 -76 -31 -87 0 -4 -6 -13 -12 -20
-7 -6 -13 -18 -13 -25 0 -12 -75 -215 -100 -268 -5 -11 -25 -63 -45 -115 -20
-52 -40 -104 -45 -115 -5 -11 -17 -45 -28 -75 -11 -30 -26 -68 -33 -85 -7 -16
-13 -32 -14 -35 -1 -3 -5 -14 -10 -25 -4 -11 -46 -119 -93 -240 -88 -229 -114
-288 -140 -317 -8 -10 -12 -18 -8 -18 4 0 1 -6 -6 -14 -8 -8 -25 -27 -39 -42
-99 -117 -241 -175 -414 -170 -101 2 -175 29 -231 82 -107 101 -117 209 -41
434 54 159 73 211 125 345 21 55 74 190 116 300 42 110 86 222 98 250 11 27
21 54 23 60 1 5 6 19 10 30 32 80 93 234 120 305 38 102 273 705 288 740 5 14
11 30 12 36 2 6 9 27 18 45 37 87 107 272 107 285 0 7 4 14 8 14 5 0 9 6 9 13
0 6 7 28 16 47 14 31 51 126 187 481 33 84 38 114 32 166 -1 7 -16 20 -33 29
-43 22 -361 17 -398 -6 -68 -42 -96 -80 -129 -170 -29 -79 -111 -291 -122
-315 -10 -21 -73 -185 -146 -380 -25 -66 -50 -124 -55 -129 -5 -6 -9 -20 -9
-33 0 -13 -5 -23 -10 -23 -6 0 -9 -3 -8 -7 3 -8 -9 -41 -37 -108 -7 -16 -25
-64 -40 -105 -16 -41 -32 -79 -37 -84 -4 -6 -8 -16 -8 -24 0 -8 -7 -28 -15
-45 -8 -18 -42 -104 -76 -192 -34 -88 -66 -171 -72 -185 -6 -14 -11 -28 -12
-32 -2 -5 -4 -10 -5 -13 -1 -3 -3 -8 -5 -12 -1 -5 -5 -17 -10 -28 -5 -11 -37
-94 -72 -185 -35 -91 -67 -174 -72 -185 -5 -11 -46 -117 -91 -235 -46 -118
-111 -287 -145 -375 -35 -88 -88 -225 -119 -305 -31 -80 -71 -173 -89 -207
-93 -180 -252 -277 -452 -276 -49 0 -97 2 -105 5 -8 2 -30 8 -48 12 -71 17
-138 70 -173 137 -26 52 -30 71 -31 139 0 86 21 157 127 425 24 61 68 175 99
255 31 80 61 153 66 162 6 10 10 23 10 29 0 6 6 25 14 42 8 18 25 61 39 97 63
163 139 357 146 375 5 11 19 47 32 80 12 33 25 65 29 70 4 6 11 24 15 40 10
38 9 34 24 70 64 150 62 193 -11 218 -52 18 -324 13 -368 -6 -54 -24 -95 -68
-115 -122 -10 -28 -22 -54 -27 -59 -4 -6 -8 -15 -8 -22 0 -6 -8 -29 -17 -50
-9 -22 -18 -43 -19 -49 -8 -31 -48 -132 -57 -143 -7 -9 -19 0 -45 40 -19 29
-38 55 -41 58 -3 3 -23 25 -45 49 -37 42 -99 100 -162 149 -68 54 -271 162
-311 165 -4 0 -22 6 -40 13 -32 14 -97 30 -156 39 -17 3 -55 9 -83 13 -81 13
-301 6 -399 -13 -121 -23 -112 -21 -185 -45 -36 -12 -69 -23 -75 -24 -33 -9
-193 -85 -264 -126 -131 -75 -304 -221 -412 -346 -79 -91 -88 -103 -104 -133
-8 -17 -19 -31 -24 -31 -5 0 -11 -8 -14 -17 -4 -10 -20 -40 -36 -68 -30 -49
-91 -171 -91 -182 0 -3 -6 -19 -14 -36 -17 -39 -28 -68 -31 -82 -2 -6 -13 -46
-25 -90 -12 -44 -23 -96 -25 -115 -2 -19 -7 -48 -10 -65 -14 -65 -7 -324 10
-385 2 -8 7 -31 10 -50 14 -83 105 -309 147 -365 4 -5 35 -46 67 -90 107 -143
226 -243 386 -327 72 -37 205 -91 205 -82 0 2 13 -2 30 -11 16 -8 32 -15 35
-14 5 1 25 -2 94 -16 92 -18 249 -22 376 -11 72 6 277 54 330 77 17 7 33 13
38 14 4 2 9 4 12 5 3 1 8 3 13 4 4 1 25 11 47 21 22 10 42 19 45 20 34 9 258
145 292 178 24 22 89 69 92 66 2 -2 18 -26 36 -53 40 -59 166 -186 185 -186 7
0 15 -4 17 -8 11 -28 240 -124 329 -137 72 -11 266 -14 314 -4 28 5 64 11 80
13 54 7 200 61 267 99 72 40 168 110 211 154 l28 28 62 -60 c54 -53 89 -80
172 -133 11 -6 31 -17 45 -22 14 -6 33 -15 42 -20 10 -6 27 -10 37 -10 11 0
22 -4 25 -9 3 -5 18 -11 33 -14 16 -3 39 -8 53 -11 109 -27 313 -24 440 6 116
27 310 114 360 160 11 10 22 18 26 18 4 0 14 8 23 18 9 9 31 30 49 46 l32 29
58 -54 c32 -30 71 -65 87 -79 47 -39 204 -114 270 -130 33 -7 62 -14 65 -15
72 -17 236 -22 322 -10 90 13 105 16 188 42 218 68 411 216 541 416 l57 89 18
-29 c10 -15 21 -30 24 -33 3 -3 25 -31 49 -63 163 -215 466 -382 766 -423 102
-13 397 -6 424 11 4 2 27 6 51 10 52 8 280 82 294 96 6 5 15 9 22 9 21 0 265
141 294 170 3 3 22 18 42 33 116 86 259 238 343 362 22 33 42 62 45 65 39 39
165 330 185 427 2 10 8 38 14 63 14 64 19 96 26 175 4 39 9 72 11 74 2 2 18 5
36 6 43 4 89 12 213 41 11 3 30 7 42 10 12 2 35 9 50 15 16 6 37 13 48 15 27
7 38 10 55 17 8 3 45 17 81 31 36 13 94 38 129 55 35 17 65 30 67 27 2 -2 -26
-79 -62 -172 -37 -93 -71 -182 -77 -199 -5 -16 -16 -44 -24 -62 -8 -17 -14
-34 -14 -38 0 -4 -6 -21 -14 -38 -13 -32 -50 -127 -51 -137 -1 -3 -5 -21 -10
-40 -9 -37 -10 -43 -23 -135 -29 -190 28 -420 140 -573 108 -146 274 -256 453
-301 83 -21 103 -23 215 -26 287 -9 536 87 738 282 141 136 211 259 332 578
39 105 76 199 81 210 9 22 141 360 191 490 17 44 37 96 45 115 21 52 29 71 46
115 9 22 41 105 73 185 31 80 70 181 86 225 16 44 33 84 38 89 6 6 39 -21 84
-65 41 -41 89 -87 108 -102 47 -41 175 -127 188 -127 5 0 10 -4 10 -9 0 -5 10
-13 23 -17 12 -4 54 -22 92 -41 39 -19 78 -36 89 -38 10 -3 21 -7 24 -9 5 -5
-36 -129 -64 -191 -7 -16 -22 -58 -34 -93 -11 -35 -25 -71 -30 -80 -4 -9 -18
-46 -31 -82 -12 -36 -28 -78 -35 -95 -56 -135 -112 -300 -120 -360 -3 -22 -9
-56 -13 -75 -8 -37 -6 -193 2 -245 14 -86 30 -132 80 -235 42 -85 59 -109 137
-189 100 -103 266 -196 390 -217 14 -3 32 -7 40 -10 43 -16 214 -21 305 -10
74 10 100 14 100 16 0 1 10 3 23 6 144 26 361 141 487 255 29 27 57 49 62 49
5 0 16 -9 25 -20 53 -61 331 -230 380 -230 9 0 19 -4 22 -9 3 -5 23 -12 43
-16 21 -5 43 -10 48 -11 43 -14 160 -35 209 -39 77 -6 235 -7 261 -1 11 2 45
7 76 10 64 8 92 13 119 21 10 3 28 8 40 10 56 11 223 72 264 96 16 10 33 16
38 13 4 -3 8 0 8 5 0 6 4 11 10 11 25 0 242 143 306 203 l32 29 36 -54 c36
-56 120 -144 166 -175 14 -9 27 -20 30 -23 3 -4 35 -23 71 -43 199 -111 439
-139 699 -82 8 2 15 4 15 5 0 1 7 3 15 5 140 30 366 168 464 283 6 7 20 23 31
35 56 62 175 260 175 290 0 9 6 22 13 29 6 7 13 20 15 28 2 8 28 78 59 155
192 485 301 764 310 789 5 17 15 32 21 34 7 2 12 0 10 -5 -2 -9 97 -211 132
-267 12 -20 18 -36 15 -36 -4 0 -2 -7 5 -15 15 -18 24 -35 152 -285 85 -167
150 -306 146 -313 -1 -1 5 -13 12 -27 8 -14 15 -27 16 -30 0 -3 4 -13 7 -22 8
-22 16 -46 18 -56 1 -4 7 -23 15 -42 15 -40 43 -149 50 -194 2 -17 7 -49 11
-71 7 -48 7 -234 0 -291 -24 -184 -80 -347 -159 -461 -42 -62 -135 -155 -197
-198 -84 -58 -212 -111 -313 -131 -21 -3 -56 -11 -83 -18 -46 -11 -112 -74
-140 -133 -23 -47 -24 -158 -2 -179 4 -4 7 -15 7 -24 0 -22 68 -94 109 -115
50 -25 225 -19 331 11 117 34 225 83 314 143 103 70 110 75 185 149 35 34 68
62 73 62 4 0 8 4 8 8 0 5 8 17 18 28 35 39 101 131 139 194 36 59 113 226 113
245 0 4 6 21 14 38 20 47 48 164 62 257 2 19 7 46 10 60 3 14 7 102 9 195 3
163 -9 316 -34 405 -18 65 -33 123 -36 139 -2 9 -20 63 -40 121 -52 148 -140
342 -248 545 -12 22 -21 42 -22 45 0 3 -5 12 -10 20 -34 54 -241 460 -278 546
-9 22 -17 47 -17 55 0 8 -4 19 -9 24 -6 6 -12 21 -15 35 -3 14 -13 52 -21 85
-32 122 -16 260 40 343 29 43 100 96 150 113 44 14 45 14 106 23 68 9 67 8
155 244 34 92 18 120 -88 156 -117 39 -259 39 -398 0 -52 -15 -166 -71 -196
-97 -134 -113 -170 -154 -247 -273 -99 -154 -158 -287 -366 -829 -34 -88 -66
-169 -70 -180 -5 -11 -30 -76 -56 -145 -26 -69 -54 -141 -62 -160 -8 -19 -18
-44 -23 -55 -4 -11 -17 -45 -29 -75 -12 -30 -24 -62 -26 -70 -2 -8 -16 -44
-30 -80 -15 -36 -40 -101 -56 -145 -33 -90 -70 -168 -81 -173 -5 -2 -8 -8 -8
-14 0 -14 -64 -92 -110 -134 -94 -88 -294 -140 -420 -111 -14 3 -34 8 -45 11
-123 28 -216 146 -217 273 -1 106 13 151 193 603 17 41 34 84 39 95 5 11 36
92 70 180 34 88 67 174 74 190 7 17 23 57 35 90 13 33 30 74 39 90 9 17 15 31
14 33 -3 3 1 18 17 57 68 170 145 365 265 675 31 80 61 154 66 165 4 11 20 49
34 85 94 246 177 458 186 472 5 10 10 22 10 27 0 5 8 26 17 47 9 22 17 41 18
44 4 12 50 132 66 168 40 96 97 247 100 267 2 11 -2 35 -10 53 -18 43 -42 48
-230 47 -175 -2 -215 -13 -267 -78 -14 -19 -69 -141 -120 -273 -52 -131 -99
-250 -106 -264 -6 -14 -13 -32 -14 -40 -2 -8 -7 -23 -13 -35 -5 -11 -33 -81
-61 -155 -29 -74 -58 -148 -65 -165 -15 -36 -129 -328 -131 -335 0 -3 -6 -18
-13 -35 -7 -16 -28 -70 -47 -120 -19 -49 -39 -99 -44 -110 -5 -11 -41 -102
-81 -202 -39 -101 -75 -183 -80 -183 -5 0 -9 4 -9 9 0 15 -110 154 -166 207
-58 57 -153 132 -199 158 -16 9 -46 26 -65 38 -19 11 -39 21 -45 22 -5 1 -23
9 -40 18 -51 27 -225 76 -320 91 -93 14 -296 15 -375 2 -25 -4 -56 -9 -70 -11
-154 -22 -388 -112 -527 -200 -28 -19 -56 -34 -62 -34 -5 0 -11 -3 -13 -7 -1
-5 -30 -28 -63 -53 -356 -264 -598 -674 -641 -1087 -11 -109 -6 -274 11 -353
3 -14 7 -38 10 -55 2 -16 9 -46 15 -65 24 -74 23 -90 -7 -128 -74 -98 -183
-174 -311 -217 -53 -18 -86 -22 -157 -20 -108 2 -134 8 -203 41 -97 48 -142
122 -148 239 -4 85 5 128 56 265 59 160 120 321 136 357 8 17 14 36 14 42 0 6
4 19 10 29 10 18 135 354 151 407 39 125 8 251 -83 336 -47 45 -105 74 -253
124 -70 24 -211 89 -225 105 -3 3 -18 12 -34 20 -30 15 -196 171 -196 183 0 4
-11 25 -25 47 -33 52 -55 137 -60 228 -5 89 -28 128 -83 138 -51 10 -303 11
-309 1 -2 -4 -8 -5 -13 -2 -19 12 -130 -61 -130 -84 0 -6 -4 -11 -9 -11 -5 0
-12 -12 -16 -27 -3 -16 -13 -41 -20 -58 -8 -16 -39 -93 -69 -170 -29 -77 -101
-261 -159 -410 -58 -148 -122 -313 -142 -365 -20 -52 -43 -109 -52 -127 -8
-17 -16 -37 -17 -45 -2 -7 -7 -22 -11 -33 -5 -11 -41 -103 -80 -205 -40 -102
-76 -194 -80 -205 -5 -11 -9 -23 -10 -27 -2 -5 -4 -10 -5 -13 -1 -3 -3 -8 -4
-12 -2 -5 -8 -19 -14 -33 -14 -32 -73 -182 -76 -195 -2 -5 -8 -23 -15 -40 -7
-16 -24 -59 -38 -95 -70 -178 -107 -232 -229 -331 -103 -82 -323 -111 -459
-59 -78 30 -147 100 -165 167 -29 105 -18 202 40 353 18 47 43 112 56 145 12
33 31 81 42 107 11 25 18 49 15 52 -4 3 -1 6 5 6 7 0 12 6 12 13 0 10 160 427
190 492 4 11 38 97 74 190 36 94 71 184 77 200 7 17 13 32 14 35 1 3 5 14 10
25 4 11 23 58 41 105 18 47 38 99 45 115 11 27 12 38 4 85 -1 8 -13 23 -27 33
-24 18 -44 19 -204 19 -210 -1 -265 -15 -333 -86 -22 -22 -64 -66 -93 -96 -95
-99 -182 -167 -343 -267 -30 -19 -124 -63 -134 -63 -5 0 -11 -3 -13 -8 -3 -7
-105 -49 -188 -76 -115 -37 -312 -78 -327 -67 -5 3 -26 42 -47 86 -33 67 -86
155 -106 175 -3 3 -17 21 -32 40 -86 114 -228 229 -374 304 -72 37 -204 89
-204 80 0 -2 -8 0 -17 5 -84 44 -494 62 -611 27 -9 -3 -33 -8 -52 -11 -19 -3
-86 -23 -148 -44 -110 -36 -130 -39 -114 -17 5 6 17 34 27 61 28 80 85 228 96
250 5 11 20 52 34 90 14 39 30 79 35 90 5 11 66 169 135 350 69 182 130 339
135 350 24 53 38 95 33 95 -3 0 -1 6 5 13 18 22 52 121 52 152 -1 72 -37 85
-242 81 -149 -2 -166 -4 -203 -25 -22 -13 -50 -35 -62 -49 -21 -24 -213 -493
-213 -520 0 -6 -4 -12 -10 -12 -5 0 -9 -3 -8 -7 0 -5 -2 -17 -6 -28 -33 -86
-90 -235 -99 -255 -5 -14 -11 -30 -12 -35 -2 -10 -32 -85 -56 -140 -33 -78
-129 -333 -129 -343 0 -7 -5 -12 -12 -12 -6 0 -9 -3 -6 -6 5 -5 -20 -77 -52
-149 -8 -19 -31 -79 -162 -420 -27 -71 -54 -139 -58 -150 -22 -50 -61 -151
-65 -165 -3 -14 -76 -203 -94 -245 -5 -11 -12 -29 -17 -40 -53 -145 -201 -530
-220 -572 -8 -17 -14 -34 -14 -38 0 -11 -28 -74 -73 -164 -96 -192 -259 -295
-467 -294 -100 0 -199 31 -255 80 -93 81 -116 220 -64 382 6 20 14 41 18 46 3
6 6 15 7 20 1 6 13 39 27 75 87 229 110 286 123 311 8 16 12 29 9 29 -4 0 0
12 8 28 8 15 28 63 46 107 17 44 36 94 42 110 7 17 13 35 15 40 4 14 112 293
128 330 19 42 90 228 92 240 1 6 10 28 20 50 10 22 18 42 19 45 1 10 78 206
96 247 11 23 19 48 19 55 0 8 4 18 8 24 4 5 18 34 29 64 12 30 43 109 68 175
26 66 48 126 48 133 0 6 4 12 9 12 4 0 8 8 8 18 0 10 3 22 8 26 4 4 7 11 7 14
1 10 54 148 76 199 11 23 19 47 19 53 0 5 4 18 10 28 5 9 31 71 56 137 25 66
65 170 89 230 24 61 47 123 50 138 4 15 11 27 16 27 5 0 8 3 7 8 -3 9 20 77
38 110 8 15 14 31 14 35 0 9 63 174 122 317 17 41 31 80 33 85 2 11 8 25 45
115 37 91 32 139 -19 164 -32 16 -318 18 -369 3z m-4792 -2573 c57 -10 46 -7
110 -27 210 -63 366 -229 436 -462 19 -64 26 -268 12 -355 -39 -243 -208 -523
-406 -670 -19 -14 -39 -30 -45 -35 -65 -59 -274 -152 -382 -170 -22 -4 -51 -9
-65 -12 -38 -7 -179 -7 -230 1 -115 16 -220 58 -310 124 -50 37 -132 124 -150
158 -8 16 -17 31 -20 34 -14 12 -62 127 -75 178 -8 31 -17 90 -20 131 -3 41
-8 78 -11 83 -3 4 -2 8 3 8 4 0 9 29 10 64 4 125 84 359 153 446 11 14 20 29
20 34 0 27 173 209 263 276 140 104 329 183 471 195 27 3 50 6 52 7 6 6 140 1
184 -8z m6440 0 c19 -3 46 -8 60 -10 30 -6 163 -55 170 -63 3 -3 18 -13 34
-21 45 -23 160 -139 198 -200 28 -44 80 -157 83 -180 3 -17 18 -98 22 -115 6
-28 5 -195 -2 -225 -3 -14 -8 -41 -11 -60 -37 -236 -219 -517 -434 -670 -118
-84 -279 -158 -380 -175 -95 -15 -123 -18 -185 -18 -197 0 -391 78 -498 200
-18 20 -37 41 -42 47 -11 12 -41 59 -72 116 -29 52 -53 130 -67 218 -13 83
-14 210 -2 230 4 7 5 16 2 20 -3 5 2 35 11 68 8 32 16 66 18 74 5 20 52 136
73 180 19 39 101 172 111 180 3 3 26 29 50 58 35 43 120 120 186 170 76 57
254 141 335 157 3 0 32 6 65 13 94 19 187 21 275 6z m7345 -8 c11 -3 36 -9 55
-14 38 -10 152 -60 160 -71 3 -3 23 -18 45 -33 116 -79 221 -243 250 -389 26
-129 23 -311 -6 -387 -6 -15 -10 -29 -10 -32 2 -8 -30 -114 -42 -140 -7 -14
-16 -28 -22 -32 -5 -4 -6 -8 -2 -8 10 0 -27 -70 -60 -116 -13 -17 -23 -36 -23
-42 0 -7 -4 -12 -8 -12 -4 0 -16 -13 -25 -29 -33 -56 -188 -202 -273 -257
-109 -71 -196 -111 -314 -141 -87 -22 -260 -38 -284 -25 -5 3 -23 6 -40 8 -80
7 -157 33 -246 81 -85 47 -205 169 -245 248 -16 33 -30 62 -30 65 0 3 -3 10
-6 15 -12 19 -38 120 -45 175 -10 78 -11 190 -1 190 5 0 6 4 3 9 -7 11 8 89
36 186 20 70 115 275 128 275 3 0 17 19 30 42 47 83 294 308 339 308 6 0 11 4
11 8 0 21 195 96 305 117 67 14 272 14 320 1z"/>
</g>
</svg>
